<svg xmlns="http://www.w3.org/2000/svg" width="1200" height="760" viewBox="0 0 1200 760" role="img" aria-labelledby="title desc">
  <title id="title">Cloud Cost Guardrail dashboard preview</title>
  <desc id="desc">Portfolio preview of the dashboard with costs, charts, recommendations, and alert workflow.</desc>
  <rect width="1200" height="760" fill="#f8fafc"/>
  <rect x="64" y="48" width="1072" height="140" rx="30" fill="#ffffff" stroke="#e2e8f0"/>
  <rect x="100" y="78" width="90" height="26" rx="13" fill="#dcfce7"/>
  <text x="114" y="97" fill="#047857" font-family="Inter, Arial, sans-serif" font-size="13" font-weight="700">Live data</text>
  <rect x="202" y="78" width="112" height="26" rx="13" fill="#f1f5f9"/>
  <text x="216" y="97" fill="#334155" font-family="Inter, Arial, sans-serif" font-size="13" font-weight="700">6-month view</text>
  <text x="100" y="142" fill="#020617" font-family="Inter, Arial, sans-serif" font-size="38" font-weight="800">Cloud cost guardrail dashboard</text>
  <rect x="900" y="88" width="100" height="44" rx="16" fill="#2563eb"/>
  <text x="923" y="116" fill="#ffffff" font-family="Inter, Arial, sans-serif" font-size="15" font-weight="700">Refresh</text>
  <rect x="1012" y="88" width="88" height="44" rx="16" fill="#ffffff" stroke="#cbd5e1"/>
  <text x="1032" y="116" fill="#334155" font-family="Inter, Arial, sans-serif" font-size="15" font-weight="700">Sign out</text>
  <g>
    <rect x="64" y="220" width="250" height="110" rx="24" fill="#ffffff" stroke="#e2e8f0"/>
    <text x="88" y="258" fill="#64748b" font-family="Inter, Arial, sans-serif" font-size="14">Month-to-date</text>
    <text x="88" y="300" fill="#020617" font-family="Inter, Arial, sans-serif" font-size="34" font-weight="800">$12.34</text>
    <rect x="334" y="220" width="250" height="110" rx="24" fill="#ffffff" stroke="#e2e8f0"/>
    <text x="358" y="258" fill="#64748b" font-family="Inter, Arial, sans-serif" font-size="14">Selected window</text>
    <text x="358" y="300" fill="#020617" font-family="Inter, Arial, sans-serif" font-size="34" font-weight="800">$42.11</text>
    <rect x="604" y="220" width="250" height="110" rx="24" fill="#ffffff" stroke="#e2e8f0"/>
    <text x="628" y="258" fill="#64748b" font-family="Inter, Arial, sans-serif" font-size="14">Open recommendations</text>
    <text x="628" y="300" fill="#020617" font-family="Inter, Arial, sans-serif" font-size="34" font-weight="800">2</text>
    <rect x="874" y="220" width="262" height="110" rx="24" fill="#ffffff" stroke="#e2e8f0"/>
    <text x="898" y="258" fill="#64748b" font-family="Inter, Arial, sans-serif" font-size="14">Notifications</text>
    <text x="898" y="300" fill="#020617" font-family="Inter, Arial, sans-serif" font-size="34" font-weight="800">Gmail</text>
  </g>
  <rect x="64" y="360" width="520" height="320" rx="28" fill="#ffffff" stroke="#e2e8f0"/>
  <text x="96" y="404" fill="#020617" font-family="Inter, Arial, sans-serif" font-size="24" font-weight="800">Cost analyzer</text>
  <polyline points="106,620 180,570 254,590 328,500 402,525 476,455 542,485" fill="none" stroke="#2563eb" stroke-width="7" stroke-linecap="round"/>
  <rect x="620" y="360" width="516" height="320" rx="28" fill="#ffffff" stroke="#e2e8f0"/>
  <text x="652" y="404" fill="#020617" font-family="Inter, Arial, sans-serif" font-size="24" font-weight="800">Recommended guardrails</text>
  <rect x="652" y="430" width="440" height="42" rx="14" fill="#f8fafc" stroke="#e2e8f0"/>
  <text x="674" y="457" fill="#64748b" font-family="Inter, Arial, sans-serif" font-size="14">Search, severity, owner, status, savings filters</text>
  <rect x="652" y="498" width="440" height="64" rx="18" fill="#f8fafc" stroke="#e2e8f0"/>
  <text x="674" y="524" fill="#020617" font-family="Inter, Arial, sans-serif" font-size="17" font-weight="700">Unattached EBS volume: vol-001</text>
  <text x="674" y="548" fill="#64748b" font-family="Inter, Arial, sans-serif" font-size="14">Warning · New · dev · $8.00/mo</text>
  <rect x="652" y="584" width="440" height="64" rx="18" fill="#f8fafc" stroke="#e2e8f0"/>
  <text x="674" y="610" fill="#020617" font-family="Inter, Arial, sans-serif" font-size="17" font-weight="700">Idle EC2 instance: i-001</text>
  <text x="674" y="634" fill="#64748b" font-family="Inter, Arial, sans-serif" font-size="14">Critical · Acknowledged · prod · $42.00/mo</text>
</svg>
